<?xml version="1.0" standalone="no"?>
<!DOCTYPE svg PUBLIC "-//W3C//DTD SVG 20010904//EN"
 "http://www.w3.org/TR/2001/REC-SVG-20010904/DTD/svg10.dtd">
<svg version="1.0" xmlns="http://www.w3.org/2000/svg"
 width="100.000000pt" height="100.000000pt" viewBox="0 0 100.000000 100.000000"
 preserveAspectRatio="xMidYMid meet">
<metadata>
Created by potrace 1.11, written by Peter Selinger 2001-2013
</metadata>
<g transform="translate(0.000000,100.000000) scale(0.100000,-0.100000)"
fill="#000000" stroke="none">
<path d="M211 840 c-46 -62 -58 -69 -79 -48 -10 10 -18 6 -40 -15 l-27 -28 49
-45 c28 -24 52 -44 55 -44 4 0 31 33 61 73 30 39 63 81 72 91 10 11 18 23 18
27 0 9 -49 49 -59 49 -3 -1 -26 -28 -50 -60z"/>
<path d="M380 780 l0 -40 270 0 270 0 0 40 0 40 -270 0 -270 0 0 -40z"/>
<path d="M214 563 c-26 -32 -49 -60 -51 -63 -2 -2 -13 2 -25 9 -18 11 -24 10
-47 -14 l-26 -27 50 -44 c27 -24 52 -44 55 -44 3 1 38 44 79 96 l73 95 -23 25
c-12 13 -26 24 -30 24 -3 0 -28 -26 -55 -57z"/>
<path d="M380 500 l0 -40 270 0 270 0 0 40 0 40 -270 0 -270 0 0 -40z"/>
<path d="M210 280 c-46 -62 -57 -69 -78 -48 -10 10 -18 6 -40 -16 l-27 -28 50
-44 c27 -24 52 -44 55 -44 3 1 38 44 79 97 l74 96 -27 24 c-15 12 -30 23 -34
23 -4 0 -27 -27 -52 -60z"/>
<path d="M380 220 l0 -40 270 0 270 0 0 40 0 40 -270 0 -270 0 0 -40z"/>
</g>
</svg>
